<?xml version="1.0" standalone="no"?>
<!DOCTYPE svg PUBLIC "-//W3C//DTD SVG 20010904//EN"
 "http://www.w3.org/TR/2001/REC-SVG-20010904/DTD/svg10.dtd">
<svg version="1.0" xmlns="http://www.w3.org/2000/svg"
 width="2157.000000pt" height="2157.000000pt" viewBox="0 0 2157.000000 2157.000000"
 preserveAspectRatio="xMidYMid meet">
<metadata>
Created by potrace 1.14, written by Peter Selinger 2001-2017
</metadata>
<g transform="translate(0.000000,2157.000000) scale(0.100000,-0.100000)"
fill="#000000" stroke="none">
<path d="M6120 16405 c-10 -12 -5 -24 26 -67 20 -29 42 -57 48 -63 15 -14 126
-163 126 -169 0 -3 -6 -3 -13 0 -29 11 -49 -21 -53 -86 -3 -48 -9 -70 -25 -86
-23 -25 -28 -80 -10 -125 7 -20 6 -30 -6 -42 -51 -51 39 -199 180 -296 52 -35
262 -142 321 -162 32 -11 49 -28 88 -88 26 -40 48 -79 48 -86 0 -32 105 -257
177 -380 164 -278 412 -565 624 -724 57 -42 101 -86 136 -134 52 -70 56 -73
157 -117 68 -30 121 -61 153 -90 81 -73 94 -83 183 -141 232 -153 457 -239
800 -305 142 -27 170 -39 192 -78 7 -13 32 -55 54 -92 23 -38 68 -121 100
-184 55 -108 59 -119 59 -185 0 -38 -5 -110 -10 -160 -14 -125 -9 -528 9 -830
l5 -71 -76 -39 c-74 -39 -222 -133 -293 -186 -66 -50 -213 -115 -300 -133 -14
-3 -36 -8 -50 -11 -77 -18 -160 -26 -285 -28 -218 -3 -367 15 -705 82 -231 46
-317 49 -392 13 -55 -27 -86 -72 -102 -146 -16 -73 -11 -147 19 -282 52 -231
46 -280 -40 -323 -80 -40 -179 -36 -410 14 -46 10 -202 67 -328 119 -75 31
-145 59 -156 61 -12 3 -31 8 -43 11 -13 3 -62 7 -110 9 -243 8 -465 -134 -625
-400 -46 -77 -73 -126 -73 -135 0 -5 -4 -10 -8 -10 -12 0 -33 -50 -27 -61 12
-18 25 -8 64 49 22 31 52 70 66 85 28 29 109 83 155 104 118 52 313 63 513 28
55 -10 73 -14 122 -25 28 -6 61 -14 74 -16 13 -3 117 -30 230 -60 311 -84 396
-103 533 -123 84 -12 253 -6 303 11 30 11 45 24 59 53 17 34 19 60 18 224 -2
293 8 305 263 302 83 -1 170 -4 195 -6 88 -9 607 -13 685 -5 44 5 109 12 145
15 36 3 81 9 100 11 19 3 46 7 60 9 93 13 127 19 225 37 61 11 121 22 135 25
14 2 57 11 95 19 137 30 127 32 168 -28 20 -29 46 -78 57 -108 l20 -54 -25
-38 c-14 -21 -43 -47 -66 -58 -35 -19 -46 -33 -84 -113 -42 -90 -99 -234 -146
-370 -20 -56 -29 -71 -54 -81 -27 -12 -30 -18 -32 -62 -3 -69 -13 -187 -18
-193 -1 -3 -6 -24 -9 -45 -12 -72 -19 -91 -79 -207 -72 -139 -83 -200 -46
-242 33 -36 89 -43 159 -19 68 24 86 18 156 -48 72 -68 111 -69 150 -4 l19 31
1 -186 c0 -184 6 -274 24 -381 5 -30 11 -68 13 -85 48 -321 170 -758 277 -988
46 -100 52 -140 52 -388 0 -173 -5 -224 -27 -249 -12 -14 -32 -77 -34 -110 -1
-8 -4 -114 -7 -235 -6 -212 -2 -280 31 -510 3 -16 14 -91 24 -165 11 -74 23
-155 26 -180 3 -25 8 -52 10 -60 2 -8 7 -35 10 -60 3 -25 24 -157 45 -295 21
-137 42 -268 45 -290 3 -22 10 -65 16 -95 5 -30 12 -77 15 -104 4 -26 9 -59
13 -73 5 -18 -3 -43 -25 -89 -34 -67 -36 -107 -8 -151 19 -30 18 -52 -5 -89
-21 -35 -21 -121 1 -224 6 -30 13 -61 14 -69 9 -47 28 -119 36 -135 6 -11 10
-62 9 -114 l-2 -94 39 -37 c24 -23 58 -43 87 -51 46 -13 48 -13 128 27 45 23
148 67 229 99 81 31 150 64 153 72 3 8 -11 44 -30 79 -34 63 -35 67 -27 129
13 96 8 128 -33 206 -29 54 -39 85 -41 128 -3 68 -20 103 -107 226 -35 50 -67
102 -70 115 -11 46 -21 326 -21 639 -1 277 2 353 19 485 2 17 7 62 10 100 4
39 8 80 10 93 2 13 7 53 11 90 3 37 12 105 19 152 12 81 12 221 0 285 -3 17
-19 75 -35 130 -34 118 -33 159 11 310 33 113 35 150 15 261 -7 44 -13 126
-12 183 1 58 -4 143 -10 190 -6 47 -10 95 -9 106 2 11 6 54 10 94 3 41 8 77 9
80 2 4 7 34 10 68 13 127 56 334 56 270 0 -32 43 -113 80 -152 36 -37 39 -45
45 -115 3 -41 8 -91 11 -110 3 -19 5 -71 5 -115 0 -89 25 -204 64 -289 18 -40
24 -66 21 -98 -6 -54 12 -92 72 -157 26 -28 60 -66 76 -85 42 -50 116 -87 185
-93 51 -5 60 -3 89 22 59 50 104 167 141 370 21 112 46 304 56 430 4 39 8 81
10 95 2 14 7 70 11 125 3 55 9 109 12 120 4 11 7 214 7 450 1 237 2 436 3 442
1 7 29 42 61 78 61 67 65 80 41 125 -18 34 -22 60 -21 160 1 96 4 141 17 240
10 83 9 110 -12 370 -26 321 -27 327 -60 367 -11 12 -28 32 -39 45 -10 12 -55
65 -98 117 -112 133 -112 133 -83 288 14 70 27 137 29 148 2 11 8 38 12 60 5
22 9 42 10 45 1 3 5 25 9 50 31 170 69 335 78 341 11 7 753 2 838 -5 25 -2
101 -7 170 -11 69 -4 132 -8 140 -10 8 -2 53 -6 100 -10 47 -3 96 -8 110 -10
14 -2 48 -6 75 -10 236 -29 427 -171 609 -452 26 -40 108 -184 183 -320 74
-137 164 -291 200 -343 205 -299 443 -419 743 -375 66 9 223 11 266 2 118 -25
222 -85 322 -187 64 -66 85 -81 92 -70 5 8 7 17 5 20 -2 3 -6 34 -10 70 -22
226 -92 405 -197 510 -83 82 -145 107 -294 115 -160 9 -276 58 -379 160 -77
75 -113 128 -181 266 -38 75 -66 152 -91 247 -37 141 -74 233 -115 288 -93
127 -154 200 -223 270 -175 178 -393 299 -655 363 -162 39 -279 50 -490 45
-96 -2 -188 -5 -205 -8 -16 -2 -61 -7 -100 -11 -38 -4 -77 -9 -85 -10 -15 -3
-89 -12 -160 -20 -19 -2 -120 -16 -225 -30 -104 -13 -210 -28 -235 -31 -25 -3
-62 -9 -82 -14 -20 -4 -39 -6 -41 -3 -3 2 -1 19 3 37 4 18 4 40 0 47 -17 31
-60 228 -63 292 -3 37 0 89 5 115 5 26 12 61 14 77 3 17 12 55 19 85 7 30 17
78 20 105 16 117 19 126 56 145 43 24 98 20 176 -11 190 -76 318 -99 523 -94
155 3 251 20 345 59 45 19 179 31 310 27 258 -8 251 -8 282 20 15 15 80 64
143 110 365 263 452 344 660 613 8 11 42 51 75 89 53 62 67 72 120 89 57 18
72 23 140 53 39 17 71 24 147 31 34 3 97 17 139 30 118 37 155 88 108 148 -20
25 -20 29 -6 58 18 37 11 55 -30 87 l-26 21 30 30 c36 35 34 59 -6 92 l-26 22
60 31 c74 39 185 100 245 135 29 17 45 33 45 46 0 31 -61 29 -162 -5 -225 -75
-663 -300 -760 -390 -65 -60 -179 -147 -341 -261 -88 -61 -168 -119 -179 -128
-106 -94 -453 -346 -532 -386 -42 -22 -196 -30 -566 -30 -418 -1 -531 13 -680
85 -105 51 -163 61 -325 59 -331 -6 -387 -5 -401 6 -51 42 -125 69 -219 79
-30 3 -61 12 -68 19 -7 7 -15 35 -18 63 -10 77 27 174 130 346 31 51 45 67 59
63 33 -8 97 70 117 145 25 88 17 119 -31 119 -27 0 -29 2 -24 28 3 15 8 68 12
117 12 187 -61 361 -215 513 -109 107 -248 153 -382 128 -58 -11 -176 -72
-223 -116 -50 -46 -113 -158 -145 -260 -19 -59 -51 -205 -67 -302 -6 -41 -10
-43 -49 -28 -54 20 -63 -29 -37 -187 10 -55 20 -80 45 -110 42 -50 57 -90 79
-213 3 -14 10 -45 17 -70 17 -64 15 -118 -7 -142 -10 -11 -38 -30 -63 -41 -25
-12 -87 -45 -139 -75 l-94 -54 -106 51 c-210 99 -387 144 -550 139 l-96 -3
-167 73 c-228 99 -389 159 -598 222 -166 51 -161 47 -317 240 -119 147 -252
303 -363 425 -113 123 -535 536 -589 575 -4 3 -20 28 -35 55 -97 169 -262 414
-355 524 -81 96 -396 402 -446 433 -36 22 -68 23 -85 3z"/>
<path d="M16096 13540 c-27 -11 -54 -25 -60 -31 -8 -9 -6 -10 9 -4 11 4 50 10
87 12 55 5 74 2 111 -16 25 -12 53 -33 61 -46 9 -14 15 -25 14 -26 -2 0 -79
-2 -173 -4 -118 -3 -184 0 -217 9 -52 14 -56 12 -32 -15 14 -15 12 -18 -33
-28 -89 -20 -159 -17 -191 7 -21 16 -27 35 -32 97 -4 44 -27 -74 -24 -125 3
-71 15 -102 59 -144 26 -25 53 -39 105 -52 69 -18 76 -33 15 -34 l-30 -1 30
-24 c17 -14 42 -31 58 -38 15 -6 27 -15 27 -18 0 -8 -38 -19 -70 -19 -21 0
-17 -6 29 -35 81 -51 143 -69 242 -69 86 -1 86 -1 72 -22 -26 -41 -90 -76
-138 -78 -25 0 -45 -4 -45 -7 0 -21 76 -68 114 -71 22 -2 26 -8 27 -33 2 -99
46 -212 91 -236 28 -15 32 -6 12 33 -42 80 -50 178 -20 236 39 75 205 190 301
208 47 8 90 -2 76 -19 -6 -8 -8 -58 -6 -127 3 -119 15 -169 59 -245 12 -22 33
-69 46 -104 13 -35 41 -90 62 -122 31 -46 39 -67 39 -108 2 -76 -14 -93 -118
-125 -202 -62 -405 -147 -459 -193 -28 -24 -54 -73 -110 -213 -130 -319 -272
-726 -291 -830 -2 -14 -9 -43 -14 -65 -61 -242 -66 -310 -29 -388 12 -26 39
-61 59 -78 78 -64 261 -113 466 -125 140 -8 139 -8 152 -35 24 -51 22 -100 -9
-198 -50 -160 -90 -329 -113 -471 -3 -19 -8 -42 -10 -50 -19 -73 -26 -394 -12
-585 7 -95 10 -158 22 -425 3 -63 8 -164 11 -225 3 -60 7 -279 9 -486 3 -479
8 -541 48 -609 59 -101 227 -287 262 -291 5 -1 29 -2 53 -4 62 -3 66 -10 56
-112 -4 -48 -7 -106 -7 -128 1 -80 14 -391 18 -425 2 -19 6 -58 9 -85 7 -78
16 -106 48 -150 69 -97 152 -112 239 -43 31 25 80 117 94 178 32 132 24 209
-38 385 -31 86 -29 121 17 295 36 135 49 85 61 -235 5 -132 5 -136 33 -215 19
-53 55 -199 67 -269 3 -19 7 -37 9 -40 6 -9 15 -133 22 -296 9 -186 9 -268 1
-320 -4 -22 -9 -62 -11 -90 -13 -135 -16 -174 -21 -225 -9 -101 -27 -175 -51
-210 -29 -45 -41 -99 -39 -177 2 -73 11 -86 72 -107 56 -19 229 -16 288 6 60
22 68 47 66 210 0 92 4 157 14 194 20 79 3 234 -26 234 -6 0 -7 19 -2 48 9 62
6 118 -8 144 -8 14 -11 79 -10 192 4 276 12 357 57 579 36 176 37 180 55 317
15 115 13 312 -4 385 -8 33 -26 101 -41 150 -20 66 -28 114 -29 180 -1 79 9
190 18 206 2 3 6 32 10 65 3 33 7 68 9 79 2 11 7 49 11 85 4 36 9 73 10 82 2
9 7 48 10 85 4 37 8 75 10 83 3 8 9 53 15 100 5 47 12 99 15 115 14 78 28 141
35 155 28 54 31 750 4 991 -7 60 -92 396 -129 504 -13 39 -34 95 -48 125 -50
112 -81 299 -79 470 1 53 14 128 46 255 44 178 84 346 92 395 2 14 9 45 14 70
5 25 12 74 15 110 8 88 22 130 44 130 23 0 58 -39 184 -205 59 -77 154 -202
212 -278 86 -113 112 -155 141 -230 19 -51 40 -103 46 -117 27 -67 114 -360
133 -450 43 -208 64 -314 69 -350 3 -25 8 -56 11 -70 3 -14 6 -55 7 -92 3 -60
0 -69 -24 -95 -48 -51 -72 -112 -75 -186 -1 -38 3 -81 9 -95 50 -123 64 -127
72 -24 4 51 20 41 37 -24 27 -101 24 -170 -9 -244 -16 -36 -32 -80 -35 -98 -8
-37 6 -72 28 -72 10 0 12 -9 8 -34 -9 -55 13 -53 71 5 62 64 102 121 146 209
29 56 33 75 33 140 0 114 -5 219 -14 264 -4 23 -10 61 -13 86 -3 25 -8 56 -11
68 -2 13 -7 61 -10 105 -3 45 -7 100 -10 122 -2 22 -7 69 -10 105 -3 36 -8 81
-10 100 -2 19 -7 62 -10 95 -3 33 -7 71 -10 85 -2 14 -7 50 -10 81 -3 31 -8
67 -10 80 -3 12 -7 43 -10 68 -3 25 -7 57 -10 71 -3 14 -8 40 -11 59 -3 19
-10 46 -16 60 -5 14 -12 40 -15 56 -14 97 -143 380 -283 620 -29 50 -61 106
-72 125 -11 19 -42 63 -69 97 -27 35 -49 67 -49 73 0 20 -82 184 -126 250 -52
79 -110 134 -212 203 -137 92 -235 138 -417 197 -76 25 -105 40 -147 78 -25
23 -35 61 -43 167 0 6 8 39 17 75 10 36 21 85 24 110 7 62 14 81 35 109 15 19
19 41 19 117 0 51 -4 104 -10 119 -11 29 -15 52 -25 140 -13 120 -57 232 -116
299 -36 42 -94 79 -129 84 -14 2 -38 16 -55 31 -107 100 -250 114 -458 44
l-118 -39 -30 35 c-60 71 -74 84 -106 98 -44 18 -89 16 -147 -7z m217 -2345
c7 -65 29 -146 66 -242 46 -123 56 -176 67 -365 l7 -118 -25 0 c-57 0 -358
126 -358 150 0 5 8 24 19 43 25 45 119 291 173 453 23 73 44 131 44 130 1 0 4
-23 7 -51z"/>
<path d="M3688 12335 c-2 -2 -23 -6 -48 -8 -172 -20 -291 -145 -324 -340 -18
-98 -10 -316 11 -350 4 -7 -6 -2 -21 11 -16 12 -33 22 -39 22 -15 0 -1 -82 28
-163 14 -39 22 -73 18 -77 -4 -3 -26 -12 -48 -19 -96 -33 -282 -182 -463 -371
-56 -59 -106 -188 -127 -327 -3 -21 -7 -48 -9 -58 -2 -11 -7 -45 -11 -75 -8
-71 -31 -143 -54 -172 -53 -66 -116 -237 -171 -458 -17 -69 -33 -134 -36 -145
-3 -11 -9 -78 -14 -150 -6 -99 -15 -148 -34 -205 -34 -96 -34 -140 -1 -215 61
-137 117 -195 168 -176 14 6 27 8 30 5 2 -3 44 -6 93 -9 76 -3 174 7 274 28
14 3 40 9 58 13 35 7 40 -2 20 -39 -19 -35 -25 -247 -14 -437 5 -69 9 -228 10
-355 2 -208 5 -236 25 -295 26 -78 53 -134 104 -218 l38 -63 3 -145 c2 -121 0
-155 -16 -202 -24 -73 -30 -110 -32 -202 -1 -67 2 -100 19 -215 2 -17 18 -71
34 -121 30 -90 94 -320 125 -447 35 -139 24 -232 -54 -477 -27 -85 -61 -201
-75 -257 -24 -94 -25 -104 -11 -131 23 -44 102 -65 241 -65 60 1 123 3 139 6
68 14 88 67 82 219 -3 79 1 119 15 173 37 139 38 132 -47 415 -66 219 -73 299
-35 440 31 113 68 297 77 370 8 77 7 112 -7 205 -17 121 -17 138 7 180 12 22
37 76 55 120 18 44 36 82 40 85 9 6 48 124 55 165 3 17 16 82 29 145 13 63 26
142 30 175 13 126 17 151 31 197 17 53 25 61 48 52 17 -6 47 -78 45 -109 -2
-34 20 -225 37 -315 21 -112 19 -103 40 -195 9 -44 17 -93 16 -110 -6 -119 -3
-202 13 -280 10 -49 21 -97 26 -106 4 -9 11 -38 14 -65 3 -27 8 -59 11 -72 2
-12 -2 -46 -11 -75 -30 -99 -38 -401 -20 -742 17 -333 9 -634 -20 -761 -8 -34
-28 -88 -44 -120 -21 -43 -34 -90 -45 -169 -29 -194 -46 -268 -76 -316 -27
-45 -46 -93 -55 -138 -2 -13 -6 -30 -9 -39 -3 -9 -8 -42 -11 -72 -11 -101 39
-133 210 -134 102 0 170 6 282 25 56 10 65 15 80 43 21 40 24 125 8 204 -8 35
-16 100 -20 144 -4 45 -8 90 -10 100 -2 10 -7 55 -10 101 -6 94 -13 146 -25
199 -14 66 -2 172 35 308 40 150 103 395 109 427 2 15 12 60 20 98 28 130 61
333 73 445 17 159 8 467 -14 503 -4 6 -8 69 -9 138 -1 69 -7 151 -13 181 -15
72 -7 109 64 288 10 25 21 50 25 55 28 38 118 378 134 505 3 25 15 114 26 198
15 115 18 158 9 173 -9 17 -7 23 10 35 18 13 20 26 21 112 3 269 1 318 -13
351 -9 21 -12 45 -7 65 9 41 4 94 -15 147 -8 24 -15 62 -15 85 0 57 -25 135
-77 237 -24 49 -46 107 -48 130 -3 23 -12 90 -21 149 -16 104 -16 109 6 215
12 61 36 138 55 178 18 39 56 142 84 230 43 134 57 167 89 201 20 22 58 65 84
95 31 35 48 48 48 37 0 -10 32 -133 72 -275 86 -311 92 -371 42 -422 -28 -29
-59 -84 -109 -194 -12 -25 -41 -55 -81 -85 -54 -40 -64 -52 -64 -78 0 -18 6
-34 13 -37 20 -8 71 17 114 57 66 59 121 71 167 35 19 -15 26 -30 26 -55 0
-32 -2 -34 -21 -24 -11 7 -27 9 -35 6 -18 -7 -18 -36 0 -36 17 0 67 -60 60
-72 -7 -11 -57 -10 -88 2 -14 5 -33 7 -43 3 -13 -5 -9 -12 23 -40 30 -26 34
-34 19 -32 -94 7 -110 -14 -39 -53 l45 -25 -25 -17 c-38 -24 -32 -36 18 -36
58 0 80 16 183 137 102 119 98 101 98 388 -1 138 -5 291 -10 340 -11 109 -11
119 1 220 11 94 12 473 2 560 -10 94 -30 199 -38 210 -5 6 -14 30 -20 55 -16
57 -15 56 -24 115 -32 202 -281 243 -611 100 -22 -10 -62 -19 -88 -21 -27 -2
-87 -17 -135 -33 -105 -35 -202 -47 -202 -25 0 8 -11 25 -23 38 -21 21 -24 34
-25 112 -3 295 -104 471 -306 539 -42 13 -189 28 -198 20z m-536 -2107 c18
-14 60 -162 61 -213 0 -28 -7 -83 -17 -130 -40 -183 -64 -242 -104 -251 -15
-3 -52 -15 -82 -26 -30 -12 -82 -23 -115 -25 l-60 -5 21 24 c34 36 102 147
136 218 46 100 73 219 77 346 1 25 37 74 55 74 7 0 19 -6 28 -12z"/>
<path d="M8023 9994 c-3 -8 -25 -23 -49 -35 -62 -31 -119 -88 -134 -134 -8
-25 -14 -89 -14 -166 0 -126 0 -127 32 -179 36 -57 40 -81 28 -156 -8 -57 -5
-54 -136 -97 -25 -9 -66 -24 -91 -35 -25 -11 -68 -23 -95 -26 -110 -15 -167
-36 -206 -78 -34 -36 -70 -119 -83 -189 -15 -79 -24 -102 -63 -160 -37 -56
-98 -178 -113 -229 -7 -22 -25 -53 -41 -69 -28 -28 -30 -36 -34 -128 -5 -120
5 -152 63 -201 l45 -39 88 1 c76 1 92 4 112 23 13 12 40 24 60 28 21 4 35 11
32 16 -7 11 7 11 25 0 8 -5 11 -16 7 -28 -4 -11 -8 -65 -11 -119 -7 -166 -15
-213 -35 -224 -15 -8 -18 -18 -14 -56 5 -40 3 -46 -15 -51 -12 -3 -21 -6 -22
-7 0 0 -2 -21 -5 -46 -3 -25 -16 -72 -29 -105 -27 -69 -41 -125 -50 -205 -3
-30 -11 -78 -17 -107 -9 -42 -8 -62 7 -116 14 -53 18 -110 18 -303 1 -132 -2
-276 -6 -321 l-8 -81 41 -39 40 -39 1 -115 c0 -63 -3 -159 -6 -215 -7 -97 -6
-105 34 -245 43 -153 97 -361 109 -419 4 -19 6 -84 4 -145 -2 -100 -5 -116
-32 -170 -22 -43 -33 -87 -42 -156 -10 -85 -10 -102 7 -160 22 -79 22 -97 -4
-116 -25 -17 -27 -49 -6 -101 15 -37 17 -38 141 -75 69 -21 133 -36 142 -33
30 10 50 83 47 170 -2 43 -6 80 -9 83 -3 3 1 18 9 33 8 16 17 54 20 87 4 32
11 76 17 98 6 22 13 49 15 60 5 30 77 228 121 335 74 181 105 287 105 364 1
73 -11 287 -19 341 -12 91 -5 165 27 263 16 47 25 62 39 62 14 0 22 11 30 43
6 23 20 76 31 117 11 41 22 91 25 110 9 78 18 121 56 260 21 80 50 161 63 182
21 31 24 47 23 115 -1 61 3 86 20 118 21 40 30 75 31 127 1 25 4 27 53 30 48
3 54 6 81 44 21 30 30 56 32 91 1 27 6 71 9 99 4 27 7 52 6 57 0 4 10 26 24
50 55 94 112 278 161 524 34 169 35 227 1 277 -20 32 -27 76 -30 189 -2 81 -7
111 -24 143 -30 59 -87 114 -173 169 -41 27 -94 68 -119 92 -25 24 -66 55 -92
69 -27 13 -48 27 -48 30 0 3 24 51 53 107 54 106 53 101 60 280 2 47 5 57 20
57 16 0 17 8 14 66 -1 36 -8 68 -13 72 -10 7 -27 53 -29 79 0 6 -8 20 -18 30
-9 11 -17 29 -17 40 0 13 -8 23 -23 27 -12 3 -32 14 -44 26 -12 11 -25 20 -28
20 -4 0 -13 7 -22 15 -20 21 -152 19 -160 -1z"/>
<path d="M13060 9453 c-39 -7 -90 -52 -111 -97 -13 -28 -19 -64 -19 -114 0
-55 -4 -74 -15 -78 -22 -9 -18 -54 10 -99 13 -22 25 -47 25 -55 0 -8 16 -46
35 -83 19 -38 35 -74 35 -81 0 -15 -72 -67 -115 -84 -30 -12 -165 -42 -165
-37 0 13 55 188 74 235 13 32 27 76 31 98 5 34 3 43 -16 61 -30 28 -65 27
-106 -5 -49 -37 -64 -74 -78 -192 -3 -20 -7 -48 -10 -62 -3 -14 -7 -45 -10
-70 -9 -81 -19 -106 -109 -291 -77 -160 -97 -228 -95 -326 3 -122 47 -183 130
-183 40 0 89 50 139 143 l35 65 17 -86 c24 -122 22 -114 66 -249 36 -107 51
-167 69 -276 8 -52 10 -202 2 -237 -26 -118 -28 -670 -4 -860 3 -19 7 -57 10
-85 8 -69 32 -157 59 -220 35 -77 40 -108 36 -225 -5 -211 -5 -236 6 -305 6
-38 23 -110 37 -160 13 -49 28 -106 31 -125 3 -19 8 -46 11 -60 29 -147 27
-339 -5 -475 -13 -58 -6 -213 13 -257 18 -43 42 -53 96 -38 66 17 88 82 96
282 5 112 5 116 43 198 47 100 43 167 -12 203 -88 58 -101 162 -48 397 23 102
21 168 -9 287 -11 42 -9 103 7 276 4 37 10 67 14 67 8 0 42 -74 55 -120 4 -14
23 -65 42 -114 22 -56 36 -112 39 -155 10 -142 26 -247 43 -287 19 -43 26 -70
37 -138 19 -126 53 -234 75 -237 26 -3 48 -2 80 4 29 6 41 15 54 44 36 75 0
275 -87 497 -39 99 -52 143 -51 181 0 28 1 91 2 140 2 95 -14 187 -50 277 -24
62 -22 72 72 258 67 134 72 150 84 265 20 191 10 285 -41 411 -33 81 -34 88
-33 218 1 74 -2 139 -5 144 -5 9 -20 418 -19 522 1 32 11 82 25 118 l23 62 90
-58 c50 -33 100 -71 112 -85 12 -15 48 -75 79 -134 74 -141 102 -180 201 -285
81 -86 143 -185 143 -228 0 -21 -37 -42 -55 -32 -5 3 -4 -2 4 -11 7 -9 22 -17
33 -17 16 0 18 -5 13 -33 -6 -29 -2 -36 35 -66 l42 -33 26 19 c25 19 27 26 30
108 3 85 2 89 -31 144 -54 87 -81 147 -123 266 -49 141 -174 360 -278 488 -44
54 -59 80 -97 160 -42 88 -138 158 -234 171 -91 13 -229 48 -273 69 -49 24
-61 53 -38 89 8 13 23 52 32 88 9 35 22 73 30 85 21 32 26 85 11 109 -8 11
-17 47 -21 80 -16 152 -133 245 -276 219z"/>
</g>
</svg>
